PathFileType	4	(X/Y/Z)	./resultDataOpenSim/trcMotMarkerGrf/sub10/qtm-05-02.trc
DataRate	CameraRate	NumFrames	NumMarkers	Units	OrigDataRate	OrigDataStartFrame	OrigNumFrames
250.000000	250.000000	5	24	m	250.000000	199	530
Frame#	Time	L.Toe.Tip			R.Toe.Tip			L.Ankle.Lat			R.Ankle.Lat			L.Ankle.Med			R.Ankle.Med			L.Heel			R.Heel			L.Knee.Lat			R.Knee.Lat			L.Knee.Med			R.Knee.Med			L.Thigh.Upper			R.Thigh.Upper			L.ASIS			R.ASIS			V.Sacral			L.Acromium			R.Acromium			C7			L.Elbow			R.Elbow			L.Wrist.Lat			R.Wrist.Lat
		X1	Y1	Z1	X2	Y2	Z2	X3	Y3	Z3	X4	Y4	Z4	X5	Y5	Z5	X6	Y6	Z6	X7	Y7	Z7	X8	Y8	Z8	X9	Y9	Z9	X10	Y10	Z10	X11	Y11	Z11	X12	Y12	Z12	X13	Y13	Z13	X14	Y14	Z14	X15	Y15	Z15	X16	Y16	Z16	X17	Y17	Z17	X18	Y18	Z18	X19	Y19	Z19	X20	Y20	Z20	X21	Y21	Z21	X22	Y22	Z22	X23	Y23	Z23	X24	Y24	Z24

199	0.792	0.033546774	-0.05705216	-0.018764416	-0.69167911	0.037988447	0.061259071	-0.096736164	-0.027205081	-0.080936909	-0.74571197	0.1682158	0.091903897	-0.1077832	-0.0035582447	0.001563685	-0.69551571	0.15385747	0.0232007	-0.16500303	-0.05422074	-0.050457724	-0.77795214	0.19187547	0.031686841	-0.075309226	0.36318358	-0.10034599	-0.41320744	0.36627872	0.15574099	-0.079348269	0.34165308	0.020867748	-0.35722918	0.33523832	0.042588641	-0.16335976	0.74221787	-0.16491832	-0.32980084	0.75365029	0.18775846	-0.13976555	0.84918914	-0.076157886	-0.22285812	0.83983589	0.15061118	-0.37366912	0.86145173	-0.032016541	-0.25797098	1.3165967	-0.15110486	-0.30459648	1.3165417	0.16256477	-0.35916966	1.33602	-0.0098916188	-0.40866115	1.0249462	-0.22952958	-0.27838649	0.96504566	0.24763953	-0.38577479	0.79493112	-0.29136313	-0.032154978	0.90755068	0.23503077
200	0.796	0.033145329	-0.057143195	-0.018519171	-0.68873686	0.039062466	0.06097892	-0.097239644	-0.029646562	-0.080872614	-0.73674545	0.17175385	0.093022259	-0.10893667	-0.005796918	0.0017516575	-0.68654161	0.15605491	0.024563086	-0.16570536	-0.057514302	-0.05108799	-0.7674998	0.19760635	0.032975375	-0.071013061	0.36074359	-0.099825846	-0.40231223	0.36361331	0.15814466	-0.07742271	0.33877502	0.021430696	-0.34417651	0.33063335	0.045555453	-0.15601877	0.74078916	-0.16518358	-0.32188756	0.75081359	0.18786358	-0.13325355	0.84764197	-0.076611949	-0.21546483	0.83795684	0.14947663	-0.36811986	0.85988249	-0.031011354	-0.25132142	1.3147965	-0.15163909	-0.29842648	1.3147487	0.16206876	-0.35284297	1.3340735	-0.010563812	-0.40122418	1.0230233	-0.23124071	-0.27426156	0.96290312	0.24697175	-0.3773359	0.79279438	-0.29181306	-0.028149474	0.90454257	0.23490824
201	0.8	0.032859995	-0.057254521	-0.018204169	-0.68508971	0.040673098	0.060771429	-0.097650237	-0.031736419	-0.080416671	-0.72745884	0.17526933	0.094238625	-0.10983824	-0.0078867103	0.0024181222	-0.67740422	0.1583791	0.025788394	-0.16631476	-0.060126407	-0.051142267	-0.75704518	0.2032638	0.034671317	-0.066936211	0.35823926	-0.099203527	-0.39134062	0.36098616	0.16057991	-0.075690972	0.33585014	0.022033327	-0.33100225	0.32610208	0.048467146	-0.14874389	0.73931668	-0.16538165	-0.31408061	0.74798417	0.18800355	-0.12688406	0.84601634	-0.077033836	-0.20820945	0.83607428	0.14839366	-0.36185936	0.85791283	-0.030720705	-0.2446542	1.3130443	-0.15215082	-0.29231527	1.3129614	0.16165245	-0.34653061	1.3321521	-0.011229172	-0.39373334	1.0211256	-0.23300011	-0.27019769	0.96073573	0.24629315	-0.36876681	0.79067893	-0.29218756	-0.024230296	0.90142334	0.23482182
202	0.804	0.032742296	-0.057384811	-0.01784535	-0.68084711	0.042682588	0.060738747	-0.097786313	-0.033268809	-0.079524941	-0.7177999	0.17880543	0.095517057	-0.11029305	-0.0097574811	0.0035530796	-0.66805803	0.16081432	0.026886126	-0.16674885	-0.061765778	-0.050615751	-0.74662358	0.20883943	0.036782211	-0.063074604	0.35577395	-0.098417299	-0.38028775	0.35843414	0.16302013	-0.073992374	0.33300786	0.022673235	-0.31771158	0.3217643	0.051254697	-0.14158283	0.73786847	-0.16556388	-0.30639099	0.74517861	0.18816099	-0.1207047	0.84429578	-0.077402734	-0.20112356	0.83419908	0.14739789	-0.35442106	0.8553201	-0.03170606	-0.23792762	1.3113529	-0.15262821	-0.286219	1.3111985	0.16131366	-0.34026018	1.3302888	-0.011882611	-0.38618798	1.0192593	-0.23483283	-0.2661966	0.95857923	0.24563626	-0.36006696	0.7885896	-0.29250113	-0.020421422	0.89820577	0.23478782
203	0.808	0.032789147	-0.057520578	-0.01747901	-0.67607816	0.044984804	0.060970099	-0.097548398	-0.03416589	-0.078275968	-0.70767867	0.18238444	0.09681958	-0.11026065	-0.011305761	0.0049841098	-0.65844121	0.16331783	0.027868375	-0.16699896	-0.062505578	-0.049695236	-0.73598452	0.21421853	0.039021386	-0.059365442	0.35348892	-0.097425116	-0.36915101	0.35598132	0.16542259	-0.072272884	0.33045509	0.023260057	-0.30433904	0.31775179	0.053844696	-0.13458866	0.73658638	-0.16577035	-0.2988172	0.74241871	0.18832657	-0.11474801	0.84247956	-0.077736778	-0.19425783	0.83236569	0.14651484	-0.34674137	0.85244468	-0.033562451	-0.23113921	1.3097349	-0.15307025	-0.28007806	1.3094823	0.16105369	-0.33405235	1.3285254	-0.012527502	-0.37858393	1.0174304	-0.23674193	-0.26227206	0.95647154	0.24500089	-0.35123692	0.78653633	-0.29275893	-0.016730134	0.89490727	0.2348077
